<svg width="72" height="72" viewBox="0 0 72 72" fill="none" xmlns="http://www.w3.org/2000/svg">
<circle cx="36" cy="36" r="36" fill="#EF9F4A"/>
<circle cx="36" cy="36" r="36" fill="url(#paint0_linear_29_1430)"/>
<circle cx="36.0001" cy="36" r="26.64" fill="url(#paint1_linear_29_1430)"/>
<g filter="url(#filter0_d_29_1430)">
<path fill-rule="evenodd" clip-rule="evenodd" d="M46.8498 54.2816C47.5113 54.4445 48.1381 54.6428 48.6081 54.8023C49.0754 54.9585 49.3813 55.0798 49.3813 55.0798C49.3813 55.0798 49.0828 55.2519 48.6025 55.4582C48.1227 55.6638 47.4583 55.8963 46.7341 56.02C46.0134 56.1464 45.2271 56.1624 44.5433 55.9647C43.863 55.7727 43.2836 55.3545 43.0904 54.6947C43.3907 54.4685 43.6636 54.3095 43.9565 54.2035C44.2482 54.1004 44.549 54.0451 44.8675 54.0326C45.5 54.0041 46.1877 54.1226 46.8498 54.2816ZM26.9198 53.7073L27.1325 53.7118C27.4504 53.7243 27.7512 53.7802 28.043 53.8839C28.3364 53.9881 28.6093 54.1488 28.909 54.3739C28.717 55.0348 28.1375 55.453 27.4572 55.645C26.7718 55.8416 25.9861 55.8268 25.2659 55.6997C24.5422 55.5744 23.8773 55.3419 23.3976 55.1362C22.9178 54.9311 22.6192 54.7579 22.6192 54.7579C22.6192 54.7579 22.9241 54.6365 23.3913 54.4816C23.8614 54.3209 24.4887 54.1232 25.1496 53.9608C25.6637 53.8367 26.1953 53.7371 26.7035 53.7129L26.9198 53.7073ZM45.6692 49.4139C45.6692 49.4139 45.6658 49.4886 45.655 49.6185C45.6419 49.7467 45.6208 49.9313 45.5843 50.1529C45.5091 50.5957 45.3672 51.1888 45.1091 51.7654C44.8522 52.342 44.4784 52.905 43.989 53.2742C43.7439 53.456 43.4722 53.5933 43.1799 53.6491C42.8876 53.7072 42.5725 53.6924 42.2711 53.5625C42.2534 52.8719 42.4414 52.3261 42.7366 51.8469C43.0346 51.3717 43.4556 50.9598 43.8904 50.6059C44.3251 50.2532 44.7695 49.9575 45.1046 49.7467C45.4396 49.5364 45.6692 49.4139 45.6692 49.4139ZM26.3302 49.0926L26.346 49.1012C26.4032 49.1327 26.6109 49.2484 26.8949 49.4253C27.231 49.6379 27.6749 49.9324 28.1102 50.2851C28.5444 50.6395 28.9654 51.0503 29.2623 51.5255C29.5574 52.0053 29.7466 52.5511 29.7301 53.2429C29.4264 53.3705 29.1124 53.3864 28.8207 53.3283C28.5273 53.2725 28.2561 53.134 28.011 52.9523C27.521 52.5848 27.1478 52.0213 26.8903 51.4435C26.6322 50.868 26.4897 50.2743 26.4157 49.8333C26.3792 49.6105 26.3576 49.4253 26.345 49.2977C26.3336 49.1667 26.3302 49.0926 26.3302 49.0926ZM53.4706 51.1233C53.923 51.1307 54.2298 51.1364 54.3036 51.1378L54.3207 51.1381C54.3207 51.1381 54.2956 51.165 54.2481 51.2133L54.1805 51.2812L54.139 51.3221C54.0199 51.4327 53.8484 51.5956 53.6325 51.7688C53.204 52.1244 52.5955 52.5375 51.9248 52.8417C51.2542 53.1454 50.522 53.338 49.8611 53.3061C49.199 53.2753 48.6133 53.0201 48.2042 52.4668C48.5312 51.8817 49.0304 51.5637 49.6275 51.3791C50.2223 51.1962 50.9186 51.1478 51.6029 51.1256C52.2861 51.1056 52.9624 51.1204 53.4706 51.1233ZM20.3971 50.8036C21.0814 50.8259 21.7771 50.8754 22.3731 51.0578C22.9696 51.2418 23.4682 51.5597 23.7958 52.1466C23.3862 52.6987 22.8004 52.9534 22.1389 52.9853C21.478 53.0167 20.7447 52.8246 20.0746 52.5192C19.404 52.2161 18.7955 51.8036 18.3664 51.4486C18.151 51.2726 17.9801 51.1107 17.8616 51.0019C17.7436 50.8868 17.6804 50.8173 17.6804 50.8173C17.6804 50.8173 18.008 50.811 18.5288 50.8025C19.0382 50.7991 19.7139 50.7843 20.3971 50.8036ZM49.1227 46.6123C49.1227 46.6123 49.1443 46.6801 49.1762 46.8027C49.2104 46.9269 49.2469 47.1001 49.2805 47.3166C49.3523 47.7496 49.3836 48.3439 49.2913 48.965C49.2007 49.5837 48.9774 50.2185 48.6025 50.6948C48.2281 51.1723 47.7022 51.4857 47.0521 51.4509C46.7866 50.8162 46.8327 50.2099 47.0105 49.6527C47.1905 49.096 47.5085 48.5872 47.8298 48.1428C48.1523 47.6989 48.4811 47.3211 48.7227 47.0477C48.8406 46.9115 48.9415 46.8026 49.0133 46.7274C49.0816 46.6528 49.1227 46.6123 49.1227 46.6123ZM22.8768 46.2916L22.9063 46.321C22.9252 46.3406 22.9526 46.3696 22.9862 46.4078C23.0574 46.4813 23.1588 46.5901 23.2773 46.7274C23.5183 46.9998 23.8477 47.3781 24.1696 47.8214C24.4915 48.2658 24.8095 48.7758 24.9895 49.3313C25.1679 49.8891 25.2134 50.4954 24.9479 51.1307C24.2972 51.1637 23.7719 50.8498 23.397 50.3746C23.0221 49.8965 22.7993 49.2618 22.7081 48.6442C22.617 48.022 22.6477 47.43 22.7184 46.9958C22.7531 46.7804 22.7896 46.6049 22.8226 46.4813C22.8546 46.3599 22.8768 46.2916 22.8768 46.2916ZM57.4716 45.7189C57.4716 45.7189 57.4437 45.7981 57.3822 45.928C57.3201 46.0557 57.2261 46.2386 57.1058 46.4551C56.9839 46.6705 56.8358 46.9206 56.6648 47.1816L56.5318 47.38L56.3902 47.581L56.315 47.683L56.2193 47.8112C56.1543 47.8943 56.0871 47.9787 56.0193 48.0613C55.4717 48.7137 54.7948 49.2134 54.1299 49.4225C53.4649 49.6367 52.8194 49.5661 52.269 49.153C52.4222 48.4909 52.7943 48.0414 53.2957 47.6505C53.4171 47.5502 53.555 47.459 53.6923 47.3662C53.829 47.2716 53.976 47.1838 54.1253 47.0927C54.2718 47.0021 54.4256 46.912 54.5823 46.8237C54.7293 46.7423 54.8757 46.6693 55.0256 46.5987C55.621 46.3189 56.2341 46.1024 56.699 45.9537C57.1685 45.8078 57.4716 45.7189 57.4716 45.7189ZM14.5284 45.3981C14.5284 45.3981 14.8309 45.4848 15.301 45.6323C15.7659 45.7816 16.3785 45.997 16.9744 46.2779C17.1237 46.3485 17.2702 46.4215 17.4172 46.5024C17.575 46.5913 17.7277 46.6801 17.8747 46.773C18.024 46.8613 18.1715 46.9502 18.3083 47.0442C18.445 47.1382 18.5824 47.2288 18.7049 47.3286C19.2051 47.72 19.5772 48.1713 19.731 48.8322C19.1806 49.2447 18.5356 49.3148 17.8696 49.1011C17.2052 48.892 16.5283 48.3929 15.9802 47.7399L15.8801 47.6157L15.7813 47.4898L15.685 47.3633L15.6092 47.2596C15.513 47.1257 15.4207 46.9924 15.3346 46.8608C15.1637 46.5987 15.0155 46.3485 14.8947 46.1332C14.774 45.9178 14.6788 45.7349 14.6167 45.6061C14.574 45.5133 14.5472 45.447 14.5354 45.4167L14.5284 45.3981ZM51.0149 43.0905C51.0149 43.0905 51.0593 43.1532 51.1306 43.2638C51.2052 43.3771 51.2958 43.5344 51.4006 43.7338C51.6086 44.1298 51.8587 44.6842 52.0314 45.2979C52.0741 45.4517 52.1129 45.6101 52.1448 45.7685C52.1755 45.9166 52.1972 46.0688 52.2097 46.2226C52.2194 46.377 52.2126 46.5292 52.1995 46.683C52.1847 46.8351 52.1482 46.9821 52.1072 47.1257C51.9305 47.6966 51.5197 48.1644 50.8935 48.3103C50.4582 47.7781 50.3192 47.1941 50.2833 46.6443C50.2531 46.091 50.3249 45.5679 50.3836 45.1298C50.403 44.944 50.4787 44.6312 50.5471 44.3862C50.6178 44.1344 50.6947 43.907 50.7659 43.7162C50.8371 43.5247 50.9038 43.3697 50.9494 43.2609C50.9898 43.1521 51.0149 43.0905 51.0149 43.0905ZM20.9845 42.7698C20.9845 42.7698 21.0102 42.8313 21.0506 42.9407C21.0956 43.0484 21.1635 43.2039 21.2335 43.3948C21.3048 43.5851 21.3822 43.813 21.4518 44.0654C21.5213 44.3093 21.5959 44.6238 21.6159 44.8101C21.6757 45.2483 21.7463 45.7708 21.7161 46.3223C21.6808 46.8733 21.5418 47.4562 21.1065 47.9895C20.4797 47.8448 20.0695 47.3758 19.8923 46.8055C19.8507 46.6608 19.8159 46.5143 19.8011 46.3622C19.7869 46.2078 19.78 46.0557 19.7897 45.903C19.8028 45.7474 19.825 45.5964 19.8541 45.4489C19.8866 45.2882 19.9248 45.1321 19.9692 44.9777C20.1418 44.3634 20.3914 43.809 20.5988 43.413C20.7031 43.2142 20.7942 43.0558 20.8683 42.9418C20.9401 42.8313 20.9845 42.7698 20.9845 42.7698ZM59.0266 40.2736C59.0266 40.2736 59.0135 40.3567 58.9776 40.4998C58.9399 40.6411 58.879 40.8416 58.7981 41.0826C58.6351 41.5607 58.4066 42.2028 58.0272 42.7897C57.8448 43.0866 57.6409 43.3771 57.4181 43.637C57.3104 43.7686 57.1822 43.886 57.0551 43.9959C56.9263 44.1036 56.7953 44.2039 56.6586 44.2905C56.1127 44.6398 55.5053 44.7868 54.8467 44.5965C54.7914 44.266 54.8147 43.9652 54.9031 43.6865C54.9458 43.5469 55.0056 43.413 55.078 43.2843C55.1503 43.1544 55.2415 43.0319 55.3264 42.9071C55.6808 42.4148 56.2261 41.9875 56.7788 41.6091C57.3138 41.2262 57.8773 40.8958 58.3081 40.6582C58.7496 40.4211 59.0266 40.2736 59.0266 40.2736ZM12.9735 39.9528C12.9735 39.9528 13.2509 40.1003 13.6919 40.3357C14.1227 40.5755 14.6862 40.9037 15.2218 41.2883C15.7733 41.6672 16.3192 42.094 16.673 42.5863C16.7585 42.7105 16.8491 42.833 16.9209 42.9629C16.9944 43.0917 17.0536 43.2261 17.0975 43.3646C17.1835 43.6444 17.2086 43.9452 17.1533 44.2745C16.4935 44.4677 15.8879 44.3201 15.3415 43.9691C15.2053 43.8825 15.0731 43.7823 14.9449 43.6734C14.8167 43.5652 14.6896 43.4478 14.5819 43.3145C14.3592 43.0558 14.1552 42.7646 13.9728 42.4689C13.5928 41.8826 13.3655 41.2399 13.2019 40.7602C13.1205 40.5208 13.0606 40.3203 13.0213 40.1773C12.9866 40.0348 12.9735 39.9528 12.9735 39.9528ZM52.208 38.7824C52.208 38.7824 52.2621 38.8332 52.355 38.926C52.4502 39.02 52.5681 39.1551 52.7083 39.3277C52.9875 39.6696 53.3373 40.1596 53.6222 40.7288C53.89 41.2935 54.0638 41.9293 54.0609 42.5344C54.0621 42.6866 54.0359 42.8313 54.0011 42.9726C53.9652 43.1122 53.9173 43.2501 53.8524 43.3783C53.7242 43.637 53.535 43.8677 53.2724 44.0518C52.6747 43.7076 52.3339 43.1942 52.1522 42.637C52.1066 42.4985 52.0707 42.355 52.0445 42.2102C52.0314 42.1384 52.0206 42.0666 52.012 41.9937C52.0006 41.9208 51.9904 41.8479 51.9778 41.7732C51.9408 41.4786 51.9305 41.1829 51.9408 40.9009C51.9767 40.3357 52.012 39.8058 52.0838 39.4183C52.1168 39.224 52.1527 39.0656 52.1767 38.9557C52.1938 38.8451 52.208 38.7824 52.208 38.7824ZM19.7926 38.4617C19.7926 38.4617 19.8051 38.5238 19.8239 38.6337C19.8467 38.7443 19.8826 38.9027 19.9162 39.097C19.988 39.4827 20.0228 40.0149 20.0598 40.579C20.0689 40.8627 20.0598 41.1573 20.0216 41.4519C20.0096 41.5259 19.9994 41.6 19.9886 41.6729C19.98 41.7453 19.9692 41.8171 19.955 41.8889C19.9287 42.0336 19.894 42.1766 19.8473 42.3156C19.6661 42.8735 19.3242 43.3863 18.7265 43.7298C18.4638 43.5458 18.2758 43.3156 18.147 43.0569C18.0827 42.9282 18.0331 42.7931 17.9983 42.6507C17.963 42.5099 17.9379 42.3652 17.9396 42.2131C17.9357 41.6091 18.1106 40.9727 18.3778 40.4075C18.6627 39.8382 19.0114 39.3488 19.2912 39.0052C19.4313 38.8332 19.5504 38.6993 19.6456 38.6052C19.7373 38.5124 19.7926 38.4617 19.7926 38.4617ZM59.3986 34.5137C59.3986 34.5137 59.4083 34.8521 59.3781 35.3666C59.3593 35.6242 59.308 35.9222 59.2493 36.2418C59.2186 36.4002 59.1832 36.5649 59.1439 36.7318C59.104 36.8988 59.063 37.0686 58.9981 37.2344C58.8767 37.5683 58.7337 37.8987 58.5662 38.2041C58.4807 38.3557 58.3941 38.5015 58.2932 38.6377C58.1878 38.7733 58.0767 38.8987 57.9594 39.0104C57.4882 39.4679 56.9201 39.7288 56.2363 39.6656C56.1195 39.3528 56.0859 39.0537 56.119 38.7648C56.1349 38.6201 56.1668 38.4788 56.2141 38.3369C56.2569 38.1967 56.3047 38.056 56.3691 37.9175C56.495 37.6423 56.6699 37.3717 56.8722 37.109C56.9771 36.978 57.0813 36.8481 57.1839 36.7193C57.2887 36.5905 57.3976 36.4634 57.5092 36.3409C57.9565 35.8469 58.4516 35.3963 58.7935 35.0601C59.1479 34.7233 59.3986 34.5137 59.3986 34.5137ZM12.6014 34.19C12.6014 34.19 12.8515 34.4037 13.2048 34.7382C13.5489 35.0749 14.0441 35.5279 14.4908 36.0213C14.6019 36.1438 14.7118 36.2692 14.8161 36.3985C14.9187 36.5273 15.0229 36.6577 15.1266 36.7877C15.3301 37.052 15.5044 37.321 15.6303 37.5979C15.6953 37.7352 15.7431 37.8754 15.7859 38.0161C15.8326 38.1563 15.8651 38.2987 15.881 38.4434C15.9141 38.7329 15.8799 39.0309 15.7625 39.3431C15.0794 39.4086 14.5124 39.1471 14.0401 38.6896C13.9233 38.5768 13.8116 38.4508 13.7068 38.3169C13.6053 38.1819 13.5182 38.0349 13.4344 37.8816C13.2657 37.5768 13.1233 37.2475 13.0014 36.9136C12.9376 36.7478 12.896 36.578 12.8561 36.411C12.8162 36.2441 12.7814 36.0794 12.7501 35.9199C12.692 35.6008 12.6401 35.3022 12.6219 35.0453C12.6058 34.7712 12.601 34.5462 12.6001 34.3959L12.6003 34.2596C12.6007 34.2143 12.6014 34.19 12.6014 34.19ZM52.4399 34.4943C52.4399 34.4943 52.694 34.6339 53.0547 34.8937C53.1447 34.9592 53.2416 35.0316 53.3436 35.1119C53.4467 35.1923 53.5504 35.28 53.649 35.3752C53.8501 35.5649 54.0581 35.7837 54.2558 36.0247C54.3527 36.1472 54.4484 36.2726 54.5378 36.4059C54.5823 36.4709 54.6273 36.5364 54.6677 36.6053C54.7048 36.6726 54.7407 36.7415 54.7749 36.811C54.9105 37.0896 55.0142 37.3802 55.0706 37.6725C55.0979 37.8207 55.1179 37.9671 55.1139 38.1118C55.1059 38.2554 55.0843 38.3973 55.0455 38.5346C54.9697 38.8098 54.8279 39.0708 54.6062 39.2987C53.9538 39.0742 53.5191 38.6411 53.233 38.1449C53.1612 38.0201 53.0997 37.8902 53.0456 37.7591C52.9812 37.6264 52.9259 37.4919 52.8781 37.3557C52.7818 37.0834 52.714 36.8082 52.6678 36.5387C52.6177 36.2692 52.5607 36.0088 52.5356 35.7677C52.5208 35.6464 52.51 35.5313 52.5014 35.4225C52.4952 35.3125 52.4906 35.2105 52.4775 35.1165C52.4472 34.8345 52.4412 34.6255 52.4401 34.5386L52.4399 34.4943ZM19.5584 34.1735L19.5582 34.2514C19.5567 34.3522 19.5498 34.5452 19.5225 34.7951C19.5088 34.8892 19.5048 34.9917 19.498 35.1005C19.4906 35.2105 19.4792 35.3256 19.4644 35.4481C19.4382 35.6886 19.3823 35.9495 19.3316 36.2179C19.2849 36.4868 19.2177 36.7637 19.1219 37.0349C19.0735 37.1711 19.0188 37.305 18.955 37.4383C18.9003 37.5705 18.8388 37.6982 18.767 37.8235C18.4804 38.3198 18.0451 38.7528 17.3927 38.9779C17.1716 38.7511 17.0314 38.4902 16.9534 38.2132C16.9163 38.0759 16.8941 37.9335 16.8861 37.7899C16.8816 37.6463 16.9021 37.4993 16.9289 37.354C16.9853 37.0606 17.0895 36.7677 17.2257 36.4902C17.2593 36.4201 17.2952 36.3518 17.3328 36.2834C17.3733 36.2167 17.4172 36.1489 17.4622 36.0834C17.5522 35.9518 17.6473 35.8259 17.7448 35.7045C17.9414 35.4629 18.1488 35.2441 18.3505 35.0538C18.449 34.9592 18.5533 34.8715 18.6564 34.79C18.7578 34.7108 18.8547 34.6379 18.9447 34.5724C19.306 34.3125 19.5584 34.1735 19.5584 34.1735ZM58.3383 28.8062C58.3383 28.8062 58.4346 29.131 58.5371 29.6347C58.5747 29.8905 58.61 30.1913 58.6351 30.5155C58.6465 30.6773 58.6562 30.8449 58.6608 31.0158C58.6602 31.1884 58.6482 31.3668 58.6351 31.544C58.6032 31.8978 58.5593 32.2539 58.4682 32.5924C58.3667 32.9303 58.2357 33.2505 58.0693 33.5291C57.7457 34.0869 57.2215 34.4755 56.5446 34.5712C56.4551 34.4339 56.3879 34.2949 56.3395 34.1541C56.291 34.0128 56.2449 33.8732 56.2238 33.7297C56.1782 33.4425 56.1993 33.1513 56.2688 32.8533C56.3269 32.5559 56.4175 32.2545 56.5463 31.9508C56.6734 31.6488 56.8323 31.3423 56.9782 31.0511C57.1298 30.7565 57.295 30.4699 57.4545 30.2027C57.6192 29.9349 57.7685 29.6928 57.8933 29.4894C58.1502 29.074 58.3383 28.8062 58.3383 28.8062ZM51.6251 30.3953C51.6251 30.3953 51.9055 30.4625 52.3208 30.6192C52.7459 30.7714 53.2581 31.0306 53.7669 31.393C53.8911 31.4842 54.0222 31.5787 54.1344 31.6836C54.2478 31.7878 54.3566 31.899 54.4581 32.014C54.6615 32.2465 54.8449 32.4978 54.968 32.7656C55.0803 33.0351 55.1464 33.3171 55.1458 33.5992C55.1435 33.7416 55.1333 33.8818 55.0882 34.0237C55.0427 34.1627 54.9777 34.3011 54.8922 34.4362C54.2057 34.3718 53.7117 34.0561 53.2894 33.6567C53.0849 33.455 52.9117 33.2305 52.7658 32.9952C52.6046 32.7616 52.4633 32.5177 52.3499 32.2779C52.2895 32.1576 52.2433 32.0374 52.1886 31.9212C52.1328 31.8049 52.0821 31.691 52.0376 31.581C51.9442 31.3617 51.8787 31.1531 51.8189 30.9782C51.6832 30.6306 51.6251 30.3953 51.6251 30.3953ZM13.6623 28.486C13.6623 28.486 13.8492 28.7543 14.1062 29.1669C14.2315 29.372 14.3797 29.6147 14.5449 29.8831C14.7044 30.148 14.8697 30.4352 15.0224 30.7286C15.1677 31.0226 15.3261 31.3275 15.4537 31.6306C15.5825 31.9337 15.6731 32.2357 15.7323 32.5325C15.8001 32.83 15.8218 33.124 15.7751 33.41C15.7551 33.5513 15.7084 33.6932 15.6605 33.8334C15.6115 33.9735 15.5443 34.112 15.4554 34.2504C14.7785 34.1541 14.2549 33.7667 13.9307 33.2072C13.7637 32.9303 13.6333 32.6106 13.5318 32.2716C13.4407 31.9337 13.3962 31.577 13.366 31.2221C13.3512 31.0449 13.3404 30.8682 13.3393 30.695C13.3438 30.5229 13.3529 30.356 13.366 30.1936C13.3888 29.8694 13.4247 29.5691 13.4629 29.3139C13.5655 28.8102 13.6623 28.486 13.6623 28.486ZM20.3749 30.074C20.3749 30.074 20.3156 30.3098 20.1812 30.658C20.1196 30.8335 20.0547 31.0392 19.9629 31.2591C19.9179 31.3696 19.8666 31.4842 19.8108 31.5998C19.7555 31.7161 19.7099 31.8363 19.6501 31.9571C19.5367 32.1987 19.3954 32.4397 19.2342 32.6739C19.0883 32.9086 18.9151 33.1342 18.7094 33.3348C18.2889 33.7353 17.7949 34.0499 17.1078 34.1154C17.0223 33.9804 16.9573 33.8419 16.9118 33.7012C16.8668 33.561 16.8565 33.4191 16.8542 33.279C16.8531 32.9958 16.9186 32.7137 17.032 32.4448C17.1545 32.1776 17.3391 31.9252 17.5425 31.6927C17.6434 31.5776 17.7522 31.4671 17.865 31.3634C17.9772 31.258 18.1089 31.1617 18.2331 31.0711C18.7419 30.7098 19.2536 30.4511 19.6792 30.2979C20.0945 30.1418 20.3749 30.074 20.3749 30.074ZM50.0018 26.6359C50.1329 26.6405 50.3106 26.6541 50.5283 26.6815C50.7454 26.7088 50.9984 26.7487 51.2747 26.8125C51.4103 26.8427 51.5568 26.8781 51.6964 26.9231C51.8359 26.9664 51.9778 27.0171 52.1208 27.0741C52.404 27.188 52.6969 27.3242 52.9521 27.4957C53.204 27.6689 53.4353 27.8672 53.6262 28.0923C53.7248 28.2022 53.7988 28.3247 53.8638 28.4512C53.927 28.5766 53.9777 28.7088 54.0125 28.8449C54.0473 28.98 54.0649 29.1219 54.0649 29.2643C54.0575 29.4113 54.029 29.5612 53.9817 29.711C53.6433 29.7691 53.3299 29.752 53.0433 29.6899C52.7578 29.6255 52.4787 29.5167 52.2331 29.3754C52.11 29.3053 51.9921 29.2273 51.8815 29.1429C51.8251 29.0996 51.7716 29.0563 51.7186 29.0119C51.6644 28.9663 51.608 28.923 51.5539 28.8757C51.3402 28.6917 51.1482 28.49 50.9801 28.2866C50.7972 28.086 50.6349 27.882 50.4975 27.6877C50.4633 27.6381 50.4297 27.5909 50.3984 27.5441C50.3636 27.4986 50.3306 27.4524 50.2981 27.4102C50.2337 27.3202 50.1762 27.2376 50.1238 27.159C50.0201 27.0034 49.9437 26.8695 49.8873 26.7766C49.8292 26.6838 49.7978 26.6308 49.7978 26.6308C49.7978 26.6308 49.8719 26.6296 50.0018 26.6359ZM55.9036 23.6184C55.9036 23.6184 55.9475 23.689 56.0187 23.8155C56.0848 23.9466 56.1782 24.1357 56.2814 24.3648C56.4979 24.8189 56.7172 25.4701 56.8546 26.1544C56.911 26.502 56.9469 26.8587 56.948 27.204C56.9514 27.3749 56.9338 27.5493 56.9087 27.7173C56.8836 27.8854 56.8483 28.0478 56.8021 28.2028C56.7058 28.5145 56.5782 28.7919 56.3714 29.0318C56.168 29.2694 55.9116 29.4609 55.5948 29.5948C55.4734 29.4848 55.3743 29.368 55.2905 29.2472C55.1993 29.127 55.1264 29.0005 55.07 28.8706C55.0125 28.7384 54.9709 28.6011 54.9424 28.4575C54.9139 28.3162 54.9031 28.1663 54.8883 28.0193C54.8649 27.7202 54.8871 27.404 54.9378 27.0786C54.9863 26.7556 55.0427 26.4314 55.1241 26.1072C55.2922 25.4576 55.4717 24.8485 55.6312 24.3813C55.768 23.9823 55.8704 23.7068 55.8969 23.6362L55.9036 23.6184ZM22.2016 26.3094C22.2016 26.3094 22.1708 26.3624 22.1121 26.4541C22.0569 26.5482 21.9794 26.6826 21.8757 26.8376C21.8238 26.9157 21.7657 26.9994 21.7019 27.0877C21.6688 27.1322 21.6364 27.1766 21.6022 27.2234C21.5703 27.2695 21.5367 27.3191 21.5019 27.3669C21.3652 27.5612 21.2022 27.7635 21.0199 27.9646C20.8506 28.1692 20.6603 28.3709 20.4455 28.5555C20.392 28.6011 20.3361 28.6467 20.282 28.69C20.2284 28.735 20.1749 28.7806 20.1185 28.821C20.0074 28.9065 19.8894 28.9845 19.7658 29.054C19.5208 29.1965 19.2416 29.3036 18.9573 29.368C18.6701 29.4324 18.3567 29.4472 18.0183 29.3908C17.9704 29.2387 17.9425 29.0899 17.9351 28.9435C17.9345 28.7994 17.9527 28.6592 17.9881 28.523C18.0228 28.388 18.073 28.2558 18.1368 28.1293C18.2012 28.0034 18.2758 27.8809 18.3727 27.7703C18.5641 27.5464 18.7955 27.3464 19.0473 27.1743C19.3031 27.0034 19.596 26.8672 19.8797 26.7533C20.0216 26.6952 20.1635 26.6467 20.3031 26.6012C20.4433 26.5578 20.5897 26.5231 20.7253 26.4912C21.0005 26.4291 21.2552 26.3881 21.4723 26.3601C21.6888 26.3328 21.8671 26.3191 21.9987 26.3151C22.0727 26.3119 22.1283 26.3105 22.1625 26.3099L22.1971 26.3094L22.2016 26.3094ZM16.0964 23.297C16.0964 23.297 16.2087 23.595 16.3688 24.0605C16.5289 24.526 16.7084 25.1368 16.8753 25.7858C16.9573 26.1111 17.0138 26.4331 17.0628 26.7573C17.1123 27.0826 17.1345 27.3994 17.1118 27.6985C17.0975 27.8461 17.0855 27.9948 17.0576 28.1367C17.0291 28.2803 16.9875 28.4176 16.93 28.5492C16.873 28.6803 16.8007 28.8062 16.7089 28.9253C16.6263 29.0478 16.5266 29.1629 16.4052 29.2728C16.0879 29.1395 15.8315 28.9475 15.6286 28.7099C15.4224 28.4712 15.2936 28.1937 15.1979 27.882C15.1517 27.727 15.117 27.5641 15.0919 27.3966C15.0668 27.2296 15.048 27.0541 15.052 26.8832C15.0531 26.5379 15.089 26.1807 15.1454 25.8337C15.2828 25.1505 15.501 24.4987 15.7186 24.0434C15.8223 23.8132 15.9152 23.6258 15.9819 23.4959C16.052 23.3665 16.0964 23.297 16.0964 23.297ZM48.5968 23.1927C48.8794 23.1944 49.1836 23.2115 49.485 23.2611C50.0975 23.3511 50.7141 23.5591 51.1841 23.9084C51.4126 24.0867 51.6063 24.3004 51.7397 24.5431C51.8673 24.7944 51.9311 25.0798 51.9163 25.3921C51.2821 25.6696 50.6844 25.6456 50.1386 25.4861C49.8611 25.4092 49.599 25.2941 49.3546 25.1568C49.1033 25.0234 48.8634 24.8702 48.648 24.7078C48.4275 24.5482 48.2178 24.3847 48.0378 24.2229C47.8555 24.0628 47.6857 23.9146 47.5512 23.7796C47.4184 23.6446 47.3034 23.5369 47.2276 23.4565C47.1507 23.3762 47.1108 23.3301 47.1108 23.3301C47.1108 23.3301 47.3957 23.2685 47.8395 23.2229C48.06 23.203 48.3153 23.1916 48.5968 23.1927ZM23.4021 22.8714C23.6842 22.8702 23.94 22.8811 24.1605 22.9021C24.6043 22.9466 24.8892 23.0098 24.8892 23.0098C24.8892 23.0098 24.8488 23.0566 24.773 23.1358C24.6961 23.215 24.581 23.3232 24.4482 23.46C24.3138 23.5927 24.1451 23.7414 23.9616 23.9021C23.7816 24.0639 23.5719 24.2263 23.352 24.387C23.136 24.5494 22.8961 24.7026 22.6454 24.8354C22.401 24.9727 22.1389 25.0867 21.8609 25.1653C21.315 25.3237 20.7179 25.3476 20.0837 25.0713C20.0689 24.7585 20.1333 24.4725 20.2598 24.2229C20.3943 23.9779 20.5874 23.7671 20.8159 23.5876C21.286 23.2377 21.9025 23.0298 22.515 22.9403C22.8158 22.8919 23.1206 22.8725 23.4021 22.8714ZM52.4063 19.2219C52.4063 19.2219 52.4599 19.2823 52.555 19.3889C52.6502 19.4977 52.7835 19.6533 52.9282 19.8555C53.0735 20.0561 53.2467 20.2886 53.4045 20.5609C53.5618 20.8344 53.7282 21.1273 53.8621 21.4452C53.9943 21.766 54.1128 22.0931 54.1869 22.4281C54.2569 22.7648 54.2917 23.1004 54.2769 23.4195C54.2359 24.0645 53.9823 24.6411 53.4347 25.0531C53.1413 24.9044 52.9219 24.7101 52.755 24.4787C52.5784 24.2537 52.4564 23.9921 52.3744 23.7027C52.1983 23.1335 52.1693 22.4554 52.1761 21.7996C52.1784 21.635 52.1875 21.4692 52.1955 21.3085C52.2023 21.1495 52.2114 20.9928 52.2234 20.843C52.245 20.5398 52.2741 20.2578 52.3026 20.0162C52.3527 19.5399 52.4063 19.2219 52.4063 19.2219ZM19.5943 18.9C19.5943 18.9 19.6473 19.2191 19.6968 19.6954C19.7248 19.937 19.7544 20.2191 19.7772 20.5222C19.788 20.6732 19.7977 20.8282 19.8034 20.9877C19.8125 21.1484 19.8205 21.3142 19.8239 21.4788C19.8302 22.1347 19.8017 22.8127 19.6245 23.3813C19.5424 23.6708 19.4216 23.9352 19.245 24.1579C19.0769 24.3881 18.8587 24.5841 18.5653 24.7323C18.0171 24.3203 17.7642 23.7426 17.7231 23.0987C17.7072 22.7796 17.7431 22.4452 17.8137 22.1073C17.8872 21.7723 18.0063 21.4441 18.1374 21.1239C18.2718 20.8071 18.4376 20.5125 18.5943 20.2413C18.7533 19.9678 18.9254 19.7342 19.0712 19.5336C19.2171 19.3319 19.3498 19.1769 19.4444 19.0692C19.5402 18.9627 19.5943 18.9 19.5943 18.9Z" fill="url(#paint2_linear_29_1430)"/>
</g>
<g filter="url(#filter1_d_29_1430)">
<path fill-rule="evenodd" clip-rule="evenodd" d="M35.4933 28.1642V30.3976C32.6039 31.0573 29.946 32.8576 28.3194 35.802L24.2465 33.4505C23.7115 33.1416 23.04 33.5282 23.04 34.147V39.7005C23.04 40.3235 23.7147 40.7041 24.2465 40.3971L28.3193 38.0456C32.6543 45.8929 44.3216 45.6302 48.1667 37.2597C48.2646 37.0466 48.2646 36.8014 48.1667 36.5883C46.569 33.1106 43.6139 31.0314 40.3954 30.3554C39.8376 28.5906 38.194 27.36 36.2975 27.36C35.8534 27.36 35.4933 27.7201 35.4933 28.1642ZM43.5823 35.5024C43.5823 36.135 43.0694 36.6479 42.4368 36.6479C41.8042 36.6479 41.2913 36.135 41.2913 35.5024C41.2913 34.8698 41.8042 34.3569 42.4368 34.3569C43.0694 34.3569 43.5823 34.8698 43.5823 35.5024Z" fill="url(#paint3_linear_29_1430)"/>
</g>
<circle cx="36.0001" cy="35.9999" r="31.68" stroke="url(#paint4_linear_29_1430)"/>
<circle cx="36.0001" cy="36" r="26.64" stroke="url(#paint5_linear_29_1430)" stroke-width="3"/>
<defs>
<filter id="filter0_d_29_1430" x="12.6001" y="18.9" width="46.8" height="38.2144" filterUnits="userSpaceOnUse" color-interpolation-filters="sRGB">
<feFlood flood-opacity="0" result="BackgroundImageFix"/>
<feColorMatrix in="SourceAlpha" type="matrix" values="0 0 0 0 0 0 0 0 0 0 0 0 0 0 0 0 0 0 127 0" result="hardAlpha"/>
<feOffset dy="1"/>
<feComposite in2="hardAlpha" operator="out"/>
<feColorMatrix type="matrix" values="0 0 0 0 0.545833 0 0 0 0 0.21151 0 0 0 0 0.0682292 0 0 0 1 0"/>
<feBlend mode="normal" in2="BackgroundImageFix" result="effect1_dropShadow_29_1430"/>
<feBlend mode="normal" in="SourceGraphic" in2="effect1_dropShadow_29_1430" result="shape"/>
</filter>
<filter id="filter1_d_29_1430" x="23.04" y="27.36" width="25.2002" height="17.3807" filterUnits="userSpaceOnUse" color-interpolation-filters="sRGB">
<feFlood flood-opacity="0" result="BackgroundImageFix"/>
<feColorMatrix in="SourceAlpha" type="matrix" values="0 0 0 0 0 0 0 0 0 0 0 0 0 0 0 0 0 0 127 0" result="hardAlpha"/>
<feOffset dy="1"/>
<feComposite in2="hardAlpha" operator="out"/>
<feColorMatrix type="matrix" values="0 0 0 0 0.545833 0 0 0 0 0.21151 0 0 0 0 0.0682292 0 0 0 1 0"/>
<feBlend mode="normal" in2="BackgroundImageFix" result="effect1_dropShadow_29_1430"/>
<feBlend mode="normal" in="SourceGraphic" in2="effect1_dropShadow_29_1430" result="shape"/>
</filter>
<linearGradient id="paint0_linear_29_1430" x1="35.64" y1="-0.72" x2="36" y2="72" gradientUnits="userSpaceOnUse">
<stop stop-color="#FEEB79"/>
<stop offset="0.286458" stop-color="#FFF3AF"/>
<stop offset="1" stop-color="#D28209"/>
</linearGradient>
<linearGradient id="paint1_linear_29_1430" x1="36.0001" y1="7.91999" x2="36.0001" y2="62.64" gradientUnits="userSpaceOnUse">
<stop stop-color="#FBE990"/>
<stop offset="1" stop-color="#CA8C3B"/>
</linearGradient>
<linearGradient id="paint2_linear_29_1430" x1="35.2801" y1="18.9" x2="35.2801" y2="56.1143" gradientUnits="userSpaceOnUse">
<stop stop-color="#FFF5B0"/>
<stop offset="1" stop-color="#DFB561"/>
</linearGradient>
<linearGradient id="paint3_linear_29_1430" x1="35.6401" y1="27.36" x2="35.6401" y2="43.7408" gradientUnits="userSpaceOnUse">
<stop stop-color="#FCEFA8"/>
<stop offset="1" stop-color="#E0B764"/>
</linearGradient>
<linearGradient id="paint4_linear_29_1430" x1="36.0001" y1="4.31995" x2="35.0036" y2="67.6643" gradientUnits="userSpaceOnUse">
<stop stop-color="#D4850E"/>
<stop offset="1" stop-color="#FDF3D6"/>
</linearGradient>
<linearGradient id="paint5_linear_29_1430" x1="36.0001" y1="9.35999" x2="35.1622" y2="62.6268" gradientUnits="userSpaceOnUse">
<stop stop-color="#D58811"/>
<stop offset="1" stop-color="#FDF3D6"/>
</linearGradient>
</defs>
</svg>
